<?xml version="1.0" standalone="no"?>
<!DOCTYPE svg PUBLIC "-//W3C//DTD SVG 20010904//EN"
 "http://www.w3.org/TR/2001/REC-SVG-20010904/DTD/svg10.dtd">
<svg version="1.0" xmlns="http://www.w3.org/2000/svg"
 width="700.000000pt" height="700.000000pt" viewBox="0 0 700.000000 700.000000"
 preserveAspectRatio="xMidYMid meet">
<metadata>
Created by potrace 1.11, written by Peter Selinger 2001-2013
</metadata>
<g transform="translate(0.000000,700.000000) scale(0.100000,-0.100000)"
fill="#000000" stroke="none">
<path d="M900 3500 l0 -3501 1513 4 c831 3 1530 7 1552 10 22 3 67 8 100 12
33 3 76 8 95 11 19 3 53 7 75 10 52 6 96 14 115 19 8 2 33 7 56 9 104 13 399
99 549 161 437 179 770 482 952 865 62 130 121 311 148 451 31 159 43 316 40
519 -1 113 -5 221 -9 240 -3 19 -8 49 -10 65 -44 307 -196 607 -420 830 -195
194 -362 287 -696 392 -9 3 -2 10 20 20 153 68 254 126 365 208 246 183 446
475 530 775 23 83 29 109 41 179 3 18 8 43 11 55 13 52 11 444 -2 541 -68 478
-242 804 -580 1088 -120 100 -300 206 -515 300 -120 53 -479 150 -635 172 -23
3 -50 7 -60 9 -11 2 -45 7 -76 10 -31 4 -66 9 -78 11 -11 2 -62 7 -113 11 -51
3 -104 9 -118 11 -14 3 -661 7 -1437 10 l-1413 4 0 -3501z m2765 2315 c149
-22 167 -26 240 -46 120 -34 233 -85 304 -137 71 -51 148 -141 189 -219 69
-133 93 -240 97 -438 7 -258 -44 -433 -170 -585 -132 -158 -387 -275 -662
-304 -29 -3 -77 -9 -105 -12 -40 -4 -1026 -8 -1189 -5 l-26 1 0 880 -1 881
617 -2 c447 -1 641 -5 706 -14z m210 -2779 c469 -79 716 -328 773 -781 8 -68
8 -266 -1 -341 -13 -115 -72 -271 -135 -359 -167 -234 -437 -367 -794 -391
-71 -4 -1246 -9 -1354 -5 l-21 1 -1 938 c0 515 2 941 5 945 6 9 1470 3 1528
-7z"/>
</g>
</svg>
